<svg xmlns="http://www.w3.org/2000/svg" width="38" height="38" viewBox="0 0 38 38">
  <g id="Brochure" transform="translate(-346 -2460)">
    <circle id="Ellipse_1" data-name="Ellipse 1" cx="19" cy="19" r="19" transform="translate(346 2460)" fill="#568b37"/>
    <g id="Group_1" data-name="Group 1" transform="translate(353 2467)">
      <path id="Path_1" data-name="Path 1" d="M0,0H24V24H0Z" fill="none"/>
      <path id="Path_2" data-name="Path 2" d="M21,9V20.993A1,1,0,0,1,20.007,22H3.993A.993.993,0,0,1,3,21.008V2.992A1,1,0,0,1,4,2H14V8a1,1,0,0,0,1,1Zm0-2H16V2ZM8,7V9h3V7Zm0,4v2h8V11Zm0,4v2h8V15Z" fill="#fff"/>
    </g>
  </g>
</svg>
