<svg xmlns="http://www.w3.org/2000/svg" width="38" height="38" viewBox="0 0 38 38">
  <g id="Call" transform="translate(-346 -2460)">
    <circle id="Ellipse_1" data-name="Ellipse 1" cx="19" cy="19" r="19" transform="translate(346 2460)" fill="#568b37"/>
    <g id="Group_7" data-name="Group 7" transform="translate(354.999 2468.999)">
      <path id="Path_3" data-name="Path 3" d="M0,0H20V20H0Z" fill="none"/>
      <path id="Path_4" data-name="Path 4" d="M18,14.185v2.947a.833.833,0,0,1-.775.832c-.364.025-.662.038-.892.038A13.334,13.334,0,0,1,3,4.667q0-.345.038-.892A.833.833,0,0,1,3.87,3H6.817a.417.417,0,0,1,.415.375c.019.192.037.344.053.46A11.585,11.585,0,0,0,8.292,7.17a.38.38,0,0,1-.123.473l-1.8,1.285a10.874,10.874,0,0,0,5.7,5.7l1.283-1.8a.385.385,0,0,1,.478-.124,11.585,11.585,0,0,0,3.334,1c.116.017.268.035.458.053a.417.417,0,0,1,.374.415Z" transform="translate(-0.5 -0.5)" fill="#fff"/>
    </g>
  </g>
</svg>
