<svg id="Group_17" data-name="Group 17" xmlns="http://www.w3.org/2000/svg" xmlns:xlink="http://www.w3.org/1999/xlink" width="104.797" height="103.556" viewBox="0 0 104.797 103.556">
  <defs>
    <clipPath id="clip-path">
      <rect id="Rectangle_14" data-name="Rectangle 14" width="104.797" height="103.556" fill="#fff"/>
    </clipPath>
  </defs>
  <g id="Group_17-2" data-name="Group 17" clip-path="url(#clip-path)">
    <path id="Path_25" data-name="Path 25" d="M108.972,17.221a31.805,31.805,0,0,1-1.1,10.124,16.5,16.5,0,0,1-3.643,6.611,1.621,1.621,0,0,0-.5,1.251c.035.942.04,1.888,0,2.83a2,2,0,0,0,1.562,2.173c4.523,1.572,9.032,3.184,13.546,4.784,7.053,2.5,11.142,8.219,11.086,15.508-.011,1.4-.614,2.169-1.711,2.189-1.136.02-1.766-.769-1.779-2.23-.052-5.876-3-10.079-8.54-12.084-4.367-1.581-8.756-3.1-13.12-4.69-.656-.239-.925-.067-1.294.466C99.19,50.347,90.9,50.388,86.6,44.231a.99.99,0,0,0-1.4-.437c-4.406,1.577-8.834,3.094-13.246,4.657a12.229,12.229,0,0,0-8.367,11.783c0,.218.009.436,0,.653A1.744,1.744,0,1,1,60.1,60.84a15.627,15.627,0,0,1,5.609-12.794,15.4,15.4,0,0,1,5.084-2.886Q77.575,42.8,84.35,40.412c1.689-.591,1.845-.92,1.95-2.669A7.122,7.122,0,0,0,84.69,32.5c-2.467-3.1-3.308-6.9-3.535-10.793a50.61,50.61,0,0,1,.1-10,13.946,13.946,0,0,1,27.545.079,49.61,49.61,0,0,1,.175,5.431m-8.723,19.8a12.244,12.244,0,0,1-5,1.283A1.734,1.734,0,1,1,95,34.851a15.451,15.451,0,0,0,1.722-.246c3.818-1.016,6.056-3.689,7.425-7.209,1.331-3.42,1.391-7.013,1.34-10.616-.008-.566-.218-.548-.662-.411a18.845,18.845,0,0,1-8.523.509,19.109,19.109,0,0,1-9.378-3.79,1.771,1.771,0,0,1-.5-2.644,1.8,1.8,0,0,1,2.7-.042,12.483,12.483,0,0,0,3.807,2.073c3.8,1.281,7.639,1.725,11.53.337.642-.229.926-.516.756-1.266A10.55,10.55,0,0,0,94.863,3.5a10.384,10.384,0,0,0-10.1,8.445,43.22,43.22,0,0,0-.146,9.233c.186,3.708.931,7.367,3.572,10.157a5.383,5.383,0,0,1,1.591,4.576,9.7,9.7,0,0,0,0,1.088,7.253,7.253,0,0,1-.667,4.019c-.212.357-.027.615.142.894a6.363,6.363,0,0,0,5.827,3.366,6.6,6.6,0,0,0,5.786-3.483c.127-.205.305-.409.128-.694a6.959,6.959,0,0,1-.738-4.077" transform="translate(-42.608 0)" fill="#fff"/>
    <path id="Path_26" data-name="Path 26" d="M31.454,42.688c-.038,2.292.195,4.4-.633,6.425a10.006,10.006,0,0,1-2.182,3.469,2.121,2.121,0,0,0-.692,1.819c.067,1.01-.3,2.256.173,2.975s1.743.9,2.667,1.31c.863.382,1.743.726,2.593,1.133a1.731,1.731,0,1,1-1.343,3.188q-3.282-1.314-6.529-2.713a1.633,1.633,0,0,1-1.042-1.636c.016-.871-.013-1.742.009-2.612.013-.5-.073-.78-.659-.523a2.978,2.978,0,0,1-.742.169,1.747,1.747,0,0,1-2.02-1.244,1.7,1.7,0,0,1,1.139-2.073,9.139,9.139,0,0,0,2.681-1.156c2.484-1.808,3.233-4.327,3.1-7.251-.029-.637-.4-.555-.794-.573a15.175,15.175,0,0,1-8.658-3.158c-1.1-.83-1.336-1.817-.662-2.689.65-.84,1.637-.913,2.7-.121a12.115,12.115,0,0,0,6.4,2.493c.707.056,1.018,0,.848-.9a6.878,6.878,0,0,0-6.734-5.67,6.762,6.762,0,0,0-6.88,5.593,31.775,31.775,0,0,0-.1,7.486A6,6,0,0,0,16.448,50.7,2.682,2.682,0,0,1,17.5,53.066c-.052,1.813-.031,3.628-.009,5.442A1.849,1.849,0,0,1,16.179,60.4c-2.581,1.065-5.189,2.079-7.7,3.285a8.336,8.336,0,0,0-4.946,7.724c-.053,1.522.014,3.048-.018,4.571A2.026,2.026,0,0,0,4.9,78.077c2,.865,3.969,1.789,5.945,2.7,1.251.579,1.693,1.5,1.223,2.482s-1.43,1.231-2.7.663q-3.03-1.357-6.046-2.744a5.2,5.2,0,0,1-3.28-5.173c.054-2.53-.285-5.083.4-7.581a11.718,11.718,0,0,1,6.507-7.867c2.1-.994,4.242-1.889,6.381-2.792.511-.216.762-.492.674-1.047a1.938,1.938,0,0,1,0-.435,5.672,5.672,0,0,0-1.483-4.826,7.95,7.95,0,0,1-1.985-5.734c.021-2.569-.3-5.155.2-7.7a10.488,10.488,0,0,1,20.512-.012,31.074,31.074,0,0,1,.213,4.678" transform="translate(0 -21.075)" fill="#fff"/>
    <path id="Path_27" data-name="Path 27" d="M259.888,55.606c-.518.113-.936.222-1.36.294a1.743,1.743,0,0,1-2.074-1.3,1.712,1.712,0,0,1,1.226-2.025,8.412,8.412,0,0,0,2.754-1.247,7.264,7.264,0,0,0,2.941-6.014c.015-1.633.025-3.266,0-4.9a6.976,6.976,0,0,0-13.951-.023c-.03,1.741-.015,3.484,0,5.225a6.649,6.649,0,0,0,2.41,5.267,2.827,2.827,0,0,1,1.094,2.454c-.058,1.813-.033,3.628-.009,5.443a1.756,1.756,0,0,1-1.151,1.79c-1.87.792-3.747,1.566-5.626,2.337-1.19.488-2.175.189-2.589-.763-.423-.973.019-1.9,1.187-2.414,1.327-.588,2.654-1.177,4-1.715.517-.207.767-.482.683-1.04a2.192,2.192,0,0,1,0-.544,5.486,5.486,0,0,0-1.474-4.716,8.172,8.172,0,0,1-2-5.737,44.076,44.076,0,0,1,.173-7.387,10.449,10.449,0,0,1,20.7,1.189,38.075,38.075,0,0,1-.164,8.031A9.212,9.212,0,0,1,264.1,52.75a3.139,3.139,0,0,0-.756,1.907c-.418,2.375.5,3.654,2.818,4.266a23.026,23.026,0,0,1,4,1.706,11.93,11.93,0,0,1,7.17,10.938c.07,1.63.035,3.266.006,4.9a5.1,5.1,0,0,1-3.012,4.8c-2.153,1.047-4.347,2.012-6.537,2.98a1.746,1.746,0,1,1-1.431-3.161c2.007-.933,4.017-1.861,6.048-2.738a2.126,2.126,0,0,0,1.457-2.276c-.106-1.989.193-3.994-.185-5.972a8.17,8.17,0,0,0-4.7-6.158c-2.557-1.2-5.139-2.367-7.8-3.334a1.741,1.741,0,0,1-1.285-1.8c.015-1.045,0-2.09,0-3.2" transform="translate(-172.574 -21.293)" fill="#fff"/>
    <path id="Path_28" data-name="Path 28" d="M145.862,271.245a2.445,2.445,0,0,1-1.232-.381c-2.666-1.319-5.345-2.612-7.991-3.968a1.929,1.929,0,0,0-2.006-.027c-2.639,1.371-5.328,2.646-7.99,3.974a1.966,1.966,0,0,1-2.246.079,2.066,2.066,0,0,1-.644-2.249c.478-2.969.878-5.951,1.339-8.922a1.607,1.607,0,0,0-.509-1.541c-2.134-2.127-4.231-4.291-6.344-6.439-.576-.585-1.093-1.195-.812-2.1.29-.936,1.025-1.192,1.916-1.333,2.94-.467,5.866-1.013,8.806-1.476a1.876,1.876,0,0,0,1.543-1.134c1.341-2.651,2.763-5.262,4.114-7.909a1.968,1.968,0,0,1,1.817-1.315,2,2,0,0,1,1.8,1.344c1.355,2.644,2.776,5.255,4.112,7.909a1.874,1.874,0,0,0,1.562,1.105c2.975.472,5.94,1.006,8.914,1.489a1.947,1.947,0,0,1,1.748,1.253,1.866,1.866,0,0,1-.66,2.04c-2.138,2.175-4.253,4.372-6.424,6.513a1.773,1.773,0,0,0-.536,1.738c.482,3.042.926,6.09,1.372,9.137a1.778,1.778,0,0,1-1.65,2.214m-2.284-4.79c-.385-2.664-.7-5.067-1.095-7.456a2.338,2.338,0,0,1,.719-2.255c.988-.964,1.938-1.967,2.9-2.956.771-.793,1.537-1.592,2.4-2.487-2.271-.4-4.331-.877-6.419-1.087a3.789,3.789,0,0,1-3.456-2.47c-.855-1.933-1.943-3.764-3.026-5.82-1.18,2.25-2.3,4.271-3.306,6.352a3.064,3.064,0,0,1-2.58,1.851c-2.285.323-4.556.751-6.958,1.156.195.249.289.395.408.517,1.622,1.666,3.239,3.337,4.877,4.987a2.279,2.279,0,0,1,.678,2.166c-.356,2.072-.642,4.157-.931,6.24-.046.335-.274.781.057,1.009.278.192.6-.148.886-.287,1.827-.891,3.671-1.751,5.46-2.713a2.8,2.8,0,0,1,2.875.018c2.052,1.073,4.146,2.066,6.51,3.235" transform="translate(-83.206 -167.691)" fill="#fff"/>
    <path id="Path_29" data-name="Path 29" d="M269.383,245.539c-.276-1.859-.465-3.477-.77-5.074a3.185,3.185,0,0,1,1.013-3.318c1.261-1.119,2.379-2.4,3.715-3.768-2.075-.359-3.915-.706-5.765-.986a2.306,2.306,0,0,1-1.861-1.313c-.872-1.706-1.776-3.4-2.738-5.224-.932,1.764-1.821,3.381-2.643,5.032a2.532,2.532,0,0,1-2.071,1.53c-1.794.252-3.574.6-5.348.906-.16.41.18.543.361.731,1.158,1.2,2.34,2.387,3.494,3.594a1.805,1.805,0,0,1,.166,2.692c-.786.746-1.737.657-2.679-.295-2.1-2.118-4.17-4.255-6.266-6.372a1.812,1.812,0,0,1,1.1-3.248c2.508-.418,5.009-.875,7.522-1.26a1.376,1.376,0,0,0,1.134-.843c1.126-2.194,2.285-4.37,3.424-6.557.383-.737.828-1.378,1.774-1.4,1-.019,1.46.654,1.861,1.428,1.118,2.157,2.257,4.3,3.37,6.463a1.447,1.447,0,0,0,1.2.906c2.479.363,4.941.839,7.413,1.246a1.942,1.942,0,0,1,1.772,1.227,1.984,1.984,0,0,1-.7,2.142c-1.718,1.724-3.405,3.479-5.132,5.195a1.612,1.612,0,0,0-.555,1.607c.426,2.427.736,4.875,1.109,7.313a1.97,1.97,0,0,1-.635,2.065,1.912,1.912,0,0,1-2.156.032c-2.177-1.085-4.371-2.137-6.528-3.26a1.813,1.813,0,0,0-1.9-.027c-2.153,1.129-4.349,2.176-6.535,3.243-1.252.611-2.234.394-2.734-.577s-.1-1.9,1.152-2.519c2.633-1.31,5.28-2.591,7.9-3.92a2.319,2.319,0,0,1,2.277.01c1.674.854,3.368,1.668,5.253,2.6" transform="translate(-175.34 -156.252)" fill="#fff"/>
    <path id="Path_30" data-name="Path 30" d="M31.842,233.354c-1.781-.312-3.554-.682-5.345-.916a2.577,2.577,0,0,1-2.16-1.566c-.8-1.616-1.669-3.2-2.615-4.994-.93,1.762-1.8,3.326-2.586,4.931a2.676,2.676,0,0,1-2.231,1.646c-1.785.236-3.553.6-5.562.945,1.349,1.375,2.526,2.638,3.775,3.826a2.862,2.862,0,0,1,1,2.895c-.353,1.729-.522,3.5-.8,5.433,1.837-.9,3.508-1.681,5.139-2.537a2.465,2.465,0,0,1,2.473-.027c2.588,1.316,5.207,2.571,7.805,3.868,1.221.61,1.637,1.57,1.15,2.538s-1.506,1.177-2.743.571c-2.216-1.087-4.435-2.169-6.628-3.3a1.553,1.553,0,0,0-1.607.013c-2.194,1.129-4.421,2.195-6.63,3.294a1.985,1.985,0,0,1-2.256,0,1.945,1.945,0,0,1-.609-2.061c.4-2.469.732-4.95,1.119-7.421a1.409,1.409,0,0,0-.443-1.352c-1.773-1.771-3.5-3.585-5.273-5.36a1.94,1.94,0,0,1-.7-2.129,2.064,2.064,0,0,1,1.891-1.235c2.438-.389,4.864-.857,7.305-1.228a1.467,1.467,0,0,0,1.2-.914c1.126-2.193,2.293-4.366,3.427-6.555a1.956,1.956,0,0,1,1.809-1.329,1.933,1.933,0,0,1,1.719,1.3c1.157,2.219,2.334,4.426,3.474,6.653a1.365,1.365,0,0,0,1.136.834c2.476.381,4.94.846,7.413,1.25a2.005,2.005,0,0,1,1.833,1.309,1.9,1.9,0,0,1-.7,2.03c-2.09,2.122-4.16,4.265-6.265,6.373-1.075,1.077-2.511.862-3.024-.405a1.735,1.735,0,0,1,.57-2.053c1.411-1.3,2.836-2.592,4.255-3.886l-.321-.439" transform="translate(-4.262 -156.269)" fill="#fff"/>
  </g>
</svg>
