<svg id="Group_23" data-name="Group 23" xmlns="http://www.w3.org/2000/svg" xmlns:xlink="http://www.w3.org/1999/xlink" width="72.106" height="85.897" viewBox="0 0 72.106 85.897">
  <defs>
    <clipPath id="clip-path">
      <rect id="Rectangle_17" data-name="Rectangle 17" width="72.106" height="85.897" fill="#fff"/>
    </clipPath>
  </defs>
  <g id="Group_22" data-name="Group 22" clip-path="url(#clip-path)">
    <path id="Path_71" data-name="Path 71" d="M40.112,26.347a28.771,28.771,0,0,0,.374,4.14A13.382,13.382,0,0,0,50.658,40.93a13.307,13.307,0,0,0,11.411-2.647,12.732,12.732,0,0,0,3.393-4.154A11.537,11.537,0,0,0,66.9,28.4c0-.634.854-1.428,1.7-1.566q.071.006.142.005c1.195.832.816,2.078.673,3.138A14.859,14.859,0,0,1,66.382,37.3a37.632,37.632,0,0,1-3.139,3.164l-.195.134c-1.073.6-2.121,1.254-3.233,1.772-.379.177-.517.312-.488.688.015.194,0,.391,0,.587,0,12.293-.028,24.587.023,36.88.011,2.57-.854,4.42-3.322,5.369H3.184A4.55,4.55,0,0,1,.122,82.908,2.506,2.506,0,0,1,.011,82.2Q0,46.191,0,10.185A4.21,4.21,0,0,1,2.913,6.9a7.328,7.328,0,0,1,1.543-.168c2.235-.018,4.472-.035,6.706.008a18,18,0,0,1,2.253.318l.308,1.32a1.594,1.594,0,0,1-1.589.881C9.322,9.215,6.508,9.244,3.7,9.246c-.662-.265-.942.043-1.007.672l-.147.484c-.009.307-.025.613-.025.92q0,35.025,0,70.049c0,.279.016.557.025.836a1.681,1.681,0,0,0,1.821,1.186q25.063-.023,50.125-.011c1.855,0,2.321-.456,2.321-2.256q0-15.507,0-31.014V43.56l-1.447-.241-.518.3a4.011,4.011,0,0,1-3-.134c-.053-.029-.114-.123-.139-.112-1.334.568-2.453-.259-3.623-.605a13.571,13.571,0,0,1-4.472-2.528l-.2-.14A15.916,15.916,0,0,1,37.6,26.172l.622-.4-.5-.444,1.227-4.191.129-.181c.642-1.055,1.225-2.153,1.947-3.15a21.371,21.371,0,0,1,1.9-2.041l.186-.134a10.8,10.8,0,0,1,4.352-2.54l.122.121.019-.126c.567-.276,1.132-.558,1.7-.825.461-.216.921-.438,1.4-.609a1.57,1.57,0,0,1,.626.011c.461.041.92.1,1.38.139.83.071,1.661.146,2.493.193a2.72,2.72,0,0,0,.645-.12l.164-.137c.032-.1.058-.278.1-.28,1.05-.073.735-.724.4-1.168a3.874,3.874,0,0,0-1.138-.734l-.359-.29H42.277l-.143.134c-.13,1.068.25,2.2-.368,3.205-.277.452-.587.884-.882,1.325l-.117.116c-2.356.062-4.713.159-7.07.177-4.635.036-9.27.028-13.9.038a3.067,3.067,0,0,1-2.55-2.013,4.448,4.448,0,0,1-.115-.711c-.007-2.5,0-5,0-7.5l.192-.509.286-.519L19.633.69,21.639,0H37.744c0,.048.005.1.009.144l.339.5.323-.28A4.927,4.927,0,0,1,42.1,4.978c.028.552,0,1.107,0,1.746h.856c3.967,0,7.935-.045,11.9.017,2.373.037,4.577,1.591,4.331,4.347a1.936,1.936,0,0,0,1.537,2.378,13.188,13.188,0,0,1,2.517,1.462c.718-.637,1.423-1.292,2.16-1.908,1.933-1.614,5.7-.794,6.4,2.059l.3.523c-.045.153-.161.324-.125.455.425,1.563-.626,2.538-1.52,3.447-4.821,4.9-9.708,9.741-14.565,14.608a4.29,4.29,0,0,1-6.2-.041c-2.088-2.327-4.328-4.53-6.635-6.642a4.184,4.184,0,0,1-.79-5.4,3.192,3.192,0,0,0,.177-.368l.682-.685a4.642,4.642,0,0,1,5.342.18c1.23,1.25,2.479,2.483,3.682,3.759.49.521.846.564,1.209-.081l7.873-7.873.127-.132-.127-.074a11.5,11.5,0,0,0-4.789-2.17c-.72-.174-1.409-.48-2.13-.645a2.342,2.342,0,0,0-.923.151,42.3,42.3,0,0,0-4.639,1.053,12.541,12.541,0,0,0-6.614,5.414A8.582,8.582,0,0,0,40.6,24.245c-.009.09-.1.171-.154.257-.637.13-.7.41-.215.83l.047.163c-.641.169-.718.449-.168.853m12.564,2.132-.356-.287a3.456,3.456,0,0,1-.827-.451c-1.5-1.465-2.971-2.958-4.46-4.433a2.028,2.028,0,0,0-2.2-.339,1.249,1.249,0,0,0-.675,1.6,4.533,4.533,0,0,0,1.087,1.595q3.1,3.18,6.278,6.292a1.574,1.574,0,0,0,2.507-.026q7.426-7.4,14.82-14.83a2.473,2.473,0,0,0,.625-1.37,1.236,1.236,0,0,0-.987-1.424,2.08,2.08,0,0,0-2.057.518Q60.18,21.643,53.861,27.9a4.208,4.208,0,0,1-1.184.583M29.578,11.7c3.071,0,6.143-.014,9.214.011.651.005.9-.209.887-.866-.029-1.647-.008-3.295-.01-4.942,0-2.224-.971-3.341-3.2-3.369q-7.119-.09-14.24.007a2.574,2.574,0,0,0-2.594,2.679c.008,1.871.032,3.742-.016,5.612-.019.719.235.889.911.882,3.015-.031,6.031-.013,9.046-.013" fill="#fff"/>
    <path id="Path_72" data-name="Path 72" d="M224.988.144c0-.048-.006-.1-.009-.144h.5l-.006.185-.489-.041" transform="translate(-187.235)" fill="#fff"/>
    <path id="Path_73" data-name="Path 73" d="M329.979,512h0Z" transform="translate(-274.619 -426.103)" fill="#fff"/>
    <path id="Path_74" data-name="Path 74" d="M43.447,189.431l-.277.532-2.109,1.959c-1.027.881-2.257.478-3.409.508a2.8,2.8,0,0,1-.935-.338,6.1,6.1,0,0,1-2.886-3.684l.044-2.661,1.352-2.177c1.423-1.242,3.216-1.243,5.033-1.309l2.174,1.389a5.137,5.137,0,0,1,1.348,2.761l.168,1.006-.5,2.013m-2.041-2.147c-.019-1.518-1.117-2.4-2.976-2.383a2.38,2.38,0,0,0-2.206,2.482,2.592,2.592,0,0,0,5.182-.1" transform="translate(-28.155 -151.683)" fill="#fff"/>
    <path id="Path_75" data-name="Path 75" d="M38.143,365.932a4.983,4.983,0,0,1,5.145,5,5.111,5.111,0,1,1-10.221-.061,4.93,4.93,0,0,1,5.076-4.94m.05,2.517a2.459,2.459,0,0,0-2.615,2.429,2.6,2.6,0,1,0,5.191.043,2.413,2.413,0,0,0-2.576-2.472" transform="translate(-27.519 -304.529)" fill="#fff"/>
    <path id="Path_76" data-name="Path 76" d="M38.07,274.88a4.96,4.96,0,0,1,5.2,4.927,5.116,5.116,0,1,1-10.231.055c-.031-2.411,2.149-5.3,5.033-4.982m.087,2.517a2.447,2.447,0,0,0-2.614,2.441,2.755,2.755,0,0,0,2.393,2.59,2.669,2.669,0,0,0,2.81-2.581,2.424,2.424,0,0,0-2.589-2.449" transform="translate(-27.494 -228.744)" fill="#fff"/>
    <path id="Path_77" data-name="Path 77" d="M127.61,407.553c-.334-.019-.667-.056-1-.056q-9.685-.005-19.37,0c-.741,0-1.522,0-1.665-.95a4.832,4.832,0,0,1,.191-1.295c.114-.81.616-.252.951-.274.195-.013.391-.009.587-.009q9.811,0,19.621,0c1.433,0,1.944.7,1.517,2.035Z" transform="translate(-87.852 -336.895)" fill="#fff"/>
    <path id="Path_78" data-name="Path 78" d="M116.9,282.264c-3.3,0-6.593.01-9.889-.008-.644,0-1.338.066-1.561-.857a1.191,1.191,0,0,1,1.031-1.633,5.007,5.007,0,0,1,.5-.018q9.889,0,19.779,0c1.16,0,1.812.543,1.715,1.4a1.282,1.282,0,0,1-1.268,1.128H116.9v-.011" transform="translate(-87.712 -232.814)" fill="#fff"/>
    <path id="Path_79" data-name="Path 79" d="M123.094,223.612a2.968,2.968,0,0,0-.311.883,1.055,1.055,0,0,1-1.2,1.16c-1,.017-2.009.006-3.014.006l-12.392-.006-.362.09a1.382,1.382,0,0,1-.827-1.534c.053-.641.523-.923,1.1-1.025a5.321,5.321,0,0,1,.919-.04q6.916,0,13.832,0c.306,0,.612-.024.918-.036l1.335.505" transform="translate(-87.371 -185.677)" fill="#fff"/>
    <path id="Path_80" data-name="Path 80" d="M113.87,373.431c-2.514,0-5.028,0-7.542,0a1.253,1.253,0,1,1-.043-2.5q7.668-.02,15.335,0a1.169,1.169,0,0,1,1.261,1.232,1.269,1.269,0,0,1-1.3,1.269c-2.57.014-5.14.005-7.71,0" transform="translate(-87.366 -308.688)" fill="#fff"/>
    <path id="Path_81" data-name="Path 81" d="M121.4,191.053q-7.41,0-14.82-.009c-1.14,0-1.583-.346-1.63-1.185a1.125,1.125,0,0,1,.992-1.279,4.426,4.426,0,0,1,.917-.048c4.717,0,9.433,0,14.15-.009.667,0,1.407.033,1.652.673a1.751,1.751,0,0,1-.573,2.057l-.688-.2" transform="translate(-87.341 -156.895)" fill="#fff"/>
    <path id="Path_82" data-name="Path 82" d="M117.545,314.709a1.23,1.23,0,0,1,0,1.64l-.843.488q-4.815-.019-9.63-.04c-.334,0-.669-.028-1-.04-.758-.028-1.053-.493-1.1-1.178a1.113,1.113,0,0,1,1.016-1.261,5.313,5.313,0,0,1,1-.055q4.857-.023,9.714-.038l.843.485" transform="translate(-87.357 -261.507)" fill="#fff"/>
    <path id="Path_83" data-name="Path 83" d="M40.023,112.534c-.009-1.19.43-1.653,1.6-1.658q4.146-.018,8.292-.026c.09.058.176.159.271.168a.971.971,0,0,1,.854,1.231c-.077.53-.269,1.252-1.125,1.171H40.855l-.831-.885" transform="translate(-33.309 -92.253)" fill="#fff"/>
    <path id="Path_84" data-name="Path 84" d="M223.426,150.959l.5.444-.623.4c-.022-.291-.437-.637.12-.846" transform="translate(-185.701 -125.633)" fill="#fff"/>
    <path id="Path_85" data-name="Path 85" d="M16.022,55.307c.065-.629.345-.937,1.007-.672l-1.007.672" transform="translate(-13.334 -45.39)" fill="#fff"/>
    <path id="Path_86" data-name="Path 86" d="M203.02,203.6l.688.2-.688-.2" transform="translate(-168.96 -169.445)" fill="#fff"/>
    <path id="Path_87" data-name="Path 87" d="M326.9,258.5l.518-.3c.031.457-.175.5-.518.3" transform="translate(-272.053 -214.886)" fill="#fff"/>
    <path id="Path_88" data-name="Path 88" d="M109.965,238.387l.362-.09-.362.09" transform="translate(-91.516 -198.318)" fill="#fff"/>
    <path id="Path_89" data-name="Path 89" d="M327.944,55.218l.359.29-.359-.29" transform="translate(-272.925 -45.954)" fill="#fff"/>
    <path id="Path_90" data-name="Path 90" d="M258.789,238.982l.2.14-.2-.14" transform="translate(-215.372 -198.888)" fill="#fff"/>
    <path id="Path_91" data-name="Path 91" d="M232.3,124.9l-.129.181.129-.181" transform="translate(-193.222 -103.947)" fill="#fff"/>
    <path id="Path_92" data-name="Path 92" d="M256.048,93.162l-.186.134.186-.134" transform="translate(-212.936 -77.532)" fill="#fff"/>
    <path id="Path_93" data-name="Path 93" d="M243,83.139l.117-.116-.117.116" transform="translate(-202.23 -69.094)" fill="#fff"/>
    <path id="Path_94" data-name="Path 94" d="M283.052,78l-.019.126L282.911,78q.07-.005.141,0" transform="translate(-235.447 -64.911)" fill="#fff"/>
    <path id="Path_95" data-name="Path 95" d="M333.064,69.956l-.164.137.164-.137" transform="translate(-277.05 -58.22)" fill="#fff"/>
    <path id="Path_96" data-name="Path 96" d="M251.144,55.352l.143-.134-.143.134" transform="translate(-209.01 -45.954)" fill="#fff"/>
    <path id="Path_97" data-name="Path 97" d="M237.272,152.813c-.55-.4-.473-.684.168-.853l-.168.853" transform="translate(-197.159 -126.466)" fill="#fff"/>
    <path id="Path_98" data-name="Path 98" d="M238.233,146.872c-.482-.42-.422-.7.215-.83Z" transform="translate(-198 -121.541)" fill="#fff"/>
    <path id="Path_99" data-name="Path 99" d="M225.031.86,225.52.9l.174.179-.323.28-.339-.5" transform="translate(-187.278 -0.716)" fill="#fff"/>
    <path id="Path_100" data-name="Path 100" d="M428.32,90.405l-.3-.523.3.523" transform="translate(-356.214 -74.803)" fill="#fff"/>
    <path id="Path_101" data-name="Path 101" d="M375.8,241.345l.195-.134-.195.134" transform="translate(-312.757 -200.743)" fill="#fff"/>
    <path id="Path_102" data-name="Path 102" d="M409.05,159.379c-.047,0-.095,0-.142-.005l.123-.121.019.126" transform="translate(-340.306 -132.535)" fill="#fff"/>
    <path id="Path_104" data-name="Path 104" d="M103.242,18.432l.286-.518-.286.518" transform="translate(-85.921 -14.909)" fill="#fff"/>
    <path id="Path_105" data-name="Path 105" d="M312.22,168.33l-.356-.287.356.287" transform="translate(-259.543 -139.851)" fill="#fff"/>
  </g>
</svg>
