<svg id="Group_15" data-name="Group 15" xmlns="http://www.w3.org/2000/svg" xmlns:xlink="http://www.w3.org/1999/xlink" width="92.228" height="92.21" viewBox="0 0 92.228 92.21">
  <defs>
    <clipPath id="clip-path">
      <rect id="Rectangle_11" data-name="Rectangle 11" width="92.228" height="92.21" fill="#64497e"/>
    </clipPath>
  </defs>
  <g id="Group_12" data-name="Group 12" clip-path="url(#clip-path)">
    <path id="Path_5" data-name="Path 5" d="M10.265,83.709a7.6,7.6,0,0,0,4.542,1.312c8.659-.038,17.318-.022,25.977-.01a13.265,13.265,0,0,1,2.2.189c1.417.241,2.6,2.229,2.49,3.652-.142,1.856-1.341,2.666-2.781,3.357H12.429a2.409,2.409,0,0,0-.351-.18q-1.9-.621-3.8-1.232l-.41-.674-.31.316-1.438-.911c-.017-.364.019-.809-.54-.361l-.533-.411-.323-.8-.225.307-.361-.362c.373-.8-.2-.727-.681-.741l-.219-.34c.023-.4.047-.8-.554-.733l-.7-1.079c.114-.518.339-1.093-.564-1.081a10.1,10.1,0,0,1-1.4-4.957Q-.015,50.2.009,21.43a17.92,17.92,0,0,1,.174-2.116,13.559,13.559,0,0,1,3.612-7.535,14.379,14.379,0,0,1,10.735-4.6c1.455-.047,2.912-.007,4.385-.007V5.16c0-.631-.01-1.261,0-1.891A3.445,3.445,0,0,1,21.443.141a3.565,3.565,0,0,1,3.975,1.588,9.423,9.423,0,0,1,.677,2.66,22.12,22.12,0,0,1,.025,2.728H42.331c0-1.22,0-2.388,0-3.555C42.335.5,45.261-.552,47.543.438c1.524.661,1.953,2.1,1.989,3.655.023,1.01,0,2.02,0,3.031H65.931c0-1.21.069-2.381-.014-3.54A3.512,3.512,0,0,1,71.162.432a3.8,3.8,0,0,1,1.968,3.68c.02,1.008,0,2.016,0,3.058,1,0,1.9-.057,2.8.012a33.456,33.456,0,0,1,5.433.569,13.456,13.456,0,0,1,9.793,8.7c.416,1.088.717,2.22,1.071,3.332V43.024a4.955,4.955,0,0,1-2.643,2.541,3.513,3.513,0,0,1-4.556-3.255c-.009-6.666.007-13.331-.014-20a7.756,7.756,0,0,0-2.054-5.7,6.482,6.482,0,0,0-4.388-2.057c-1.78-.068-3.56-.17-5.44-.262,0,1.141.029,2.152-.006,3.161-.071,2.02-.79,3.335-2.79,3.988a3.471,3.471,0,0,1-4.4-3.158c-.06-1.257-.011-2.519-.011-3.842H49.536c0,.988.039,2.027-.008,3.061-.093,2.028-.771,3.28-2.827,3.961a3.488,3.488,0,0,1-4.367-3.122c-.014-1.287,0-2.574,0-3.911H26.119c0,.877.045,1.77-.014,2.655a19.892,19.892,0,0,1-.342,2.149c-.412,2.31-3.776,3.171-5.6,1.529a3.457,3.457,0,0,1-1.256-2.8c.037-1.164.008-2.33.008-3.585-2.406.043-4.792-.266-7.065.562a6.869,6.869,0,0,0-3.259,2.5,8.2,8.2,0,0,0-1.4,5.209q.026,27.023-.016,54.046a9.435,9.435,0,0,0,1.475,5.588l.552.555L9.374,83l.361.359.319.2.211.15" transform="translate(0 0)" fill="#64497e"/>
    <path id="Path_6" data-name="Path 6" d="M234.69,259.342c-1.251-.3-2.511-.572-3.752-.91a21.134,21.134,0,0,1-7.41-3.851,20.9,20.9,0,0,1-6.407-8.477,22.668,22.668,0,0,1-1.488-5.336,20.822,20.822,0,0,1,1.123-10.812,21.509,21.509,0,0,1,5.709-8.544,21.09,21.09,0,0,1,11.12-5.314,22.042,22.042,0,0,1,12.9,1.789,1.07,1.07,0,0,0,.265.049l.356.172-.009-.009.2.136a24.144,24.144,0,0,1,6.1,4.782,21.237,21.237,0,0,1,5.083,10.219c.124.664.352,1.309.532,1.962v4.865a2.058,2.058,0,0,0-.347.655,19.221,19.221,0,0,1-1.931,6.373,20.991,20.991,0,0,1-6.1,7.562,19.751,19.751,0,0,1-7.564,3.819c-1.287.3-2.579.581-3.869.87Zm2.345-7.208a14.567,14.567,0,1,0-14.409-13.457,14.657,14.657,0,0,0,14.409,13.457" transform="translate(-166.78 -167.132)" fill="#6ea64d"/>
    <path id="Path_7" data-name="Path 7" d="M153.23,155.27a3.4,3.4,0,0,1,3.349-3.613,3.622,3.622,0,0,1,3.839,3.564c.056,2.121-1.546,3.557-3.859,3.647-1.49.058-3.622-1.684-3.328-3.6" transform="translate(-118.64 -117.443)" fill="#64497e"/>
    <path id="Path_8" data-name="Path 8" d="M83.8,155.189a3.4,3.4,0,0,1,3.334-3.539,3.628,3.628,0,0,1,3.854,3.55,3.537,3.537,0,0,1-3.845,3.639,3.351,3.351,0,0,1-3.342-3.65" transform="translate(-64.886 -117.437)" fill="#64497e"/>
    <path id="Path_9" data-name="Path 9" d="M83.836,224.731a3.383,3.383,0,0,1,3.345-3.539c2.277.074,3.671,1.232,3.8,3.529a3.666,3.666,0,0,1-3.788,3.663,3.579,3.579,0,0,1-3.359-3.654" transform="translate(-64.918 -171.29)" fill="#64497e"/>
    <path id="Path_10" data-name="Path 10" d="M83.778,294.275a3.383,3.383,0,0,1,3.29-3.593c2.278.031,3.76,1.226,3.856,3.562A3.734,3.734,0,0,1,87.1,297.9c-1.4-.026-3.6-1.786-3.324-3.62" transform="translate(-64.86 -225.104)" fill="#64497e"/>
    <path id="Path_11" data-name="Path 11" d="M156.709,228.352c-1.757.27-3.508-1.9-3.562-3.286a3.513,3.513,0,0,1,3.4-3.888c2.335.1,3.677,1.307,3.787,3.546a3.592,3.592,0,0,1-3.622,3.627" transform="translate(-118.594 -171.278)" fill="#64497e"/>
    <path id="Path_12" data-name="Path 12" d="M156.687,297.846c-1.728.226-3.444-1.834-3.511-3.24a3.487,3.487,0,0,1,3.342-3.932c2.39.063,3.768,1.361,3.834,3.586a3.593,3.593,0,0,1-3.665,3.586" transform="translate(-118.614 -225.097)" fill="#64497e"/>
    <path id="Path_13" data-name="Path 13" d="M292.239,155.295a3.351,3.351,0,0,1,3.271-3.55c2.229-.015,3.79,1.184,3.872,3.545a3.591,3.591,0,0,1-3.64,3.626,3.524,3.524,0,0,1-3.5-3.62" transform="translate(-226.306 -117.511)" fill="#64497e"/>
    <path id="Path_14" data-name="Path 14" d="M222.779,155.3a3.362,3.362,0,0,1,3.336-3.579c2.491.055,3.806,1.514,3.809,3.612a3.631,3.631,0,0,1-3.706,3.569,3.546,3.546,0,0,1-3.439-3.6" transform="translate(-172.518 -117.496)" fill="#64497e"/>
    <path id="Path_15" data-name="Path 15" d="M38.915,365.268l-.552-.555.552.555" transform="translate(-29.708 -282.434)" fill="#64497e"/>
    <path id="Path_16" data-name="Path 16" d="M41.914,368.278l-.361-.359.361.359" transform="translate(-32.179 -284.917)" fill="#64497e"/>
    <path id="Path_17" data-name="Path 17" d="M44.78,370.536l-.211-.15.211.15" transform="translate(-34.514 -286.827)" fill="#64497e"/>
    <path id="Path_18" data-name="Path 18" d="M6.834,373.121,6.27,372.04c.9-.012.678.563.564,1.081" transform="translate(-4.855 -288.108)" fill="#64497e"/>
    <path id="Path_19" data-name="Path 19" d="M15.994,387.113l-.681-.741c.48.014,1.054-.058.681.741" transform="translate(-11.858 -299.207)" fill="#64497e"/>
    <path id="Path_20" data-name="Path 20" d="M34.211,400.16l-.72-.358.31-.316.41.674" transform="translate(-25.935 -309.362)" fill="#64497e"/>
    <path id="Path_21" data-name="Path 21" d="M20.48,390.692l-.548-.49.225-.308.323.8" transform="translate(-15.435 -301.935)" fill="#64497e"/>
    <path id="Path_22" data-name="Path 22" d="M12.439,382.32l-.554-.733c.6-.071.577.331.554.733" transform="translate(-9.204 -295.495)" fill="#64497e"/>
    <path id="Path_23" data-name="Path 23" d="M25.26,394.962l-.54-.361c.56-.449.523,0,.54.361" transform="translate(-19.143 -305.434)" fill="#64497e"/>
    <path id="Path_24" data-name="Path 24" d="M303.413,271.118l2.458.252a3.745,3.745,0,0,1,2.6,2.5c.388,2.773-1.166,4.526-4.014,4.527-1.559,0-3.12-.038-4.677.007a3.576,3.576,0,0,1-3.577-3.56c.039-2.459,0-4.918.009-7.378,0-2.4,1.671-3.741,4.052-3.515a3.659,3.659,0,0,1,3.148,3.9c.014,1.077,0,2.154,0,3.268" transform="translate(-229.378 -204.387)" fill="#64497e"/>
  </g>
</svg>
