<svg id="Group_25" data-name="Group 25" xmlns="http://www.w3.org/2000/svg" xmlns:xlink="http://www.w3.org/1999/xlink" width="88.496" height="82.165" viewBox="0 0 88.496 82.165">
  <defs>
    <clipPath id="clip-path">
      <rect id="Rectangle_18" data-name="Rectangle 18" width="88.496" height="82.165" fill="#fff"/>
    </clipPath>
  </defs>
  <g id="Group_24" data-name="Group 24" clip-path="url(#clip-path)">
    <path id="Path_106" data-name="Path 106" d="M22.734,16.516c0-1.927,0-3.73,0-5.532.015-6.55,4.435-10.969,11-10.977q10.408-.013,20.816,0c6.645.007,11,4.389,11.011,11.06,0,1.766,0,3.532,0,5.45h1.357c5.007,0,10.014-.008,15.02,0a6.231,6.231,0,0,1,6.552,6.523c.018,5.952.006,11.9,0,17.856,0,1.67-.265,2.085-1.927,2.43-.968.2-1.208.624-1.2,1.583.039,10.051.026,20.1.023,30.154,0,4.607-2.479,7.1-7.077,7.1q-34.062,0-68.124,0c-4.589,0-7.068-2.5-7.069-7.1,0-10.051-.016-20.1.025-30.154,0-.972-.266-1.381-1.212-1.587C.243,42.953,0,42.584,0,40.9q0-8.868,0-17.738c.007-4.031,2.63-6.634,6.675-6.64q7.333-.01,14.666,0h1.387M6.423,44.494V45.88q0,14.541,0,29.082c0,2.907.985,3.89,3.911,3.891q33.935,0,67.87,0c2.849,0,3.866-1.008,3.866-3.819q0-14.6,0-29.2V44.557c-.493.1-.875.157-1.247.251-2.328.585-4.653,1.18-6.98,1.768-7.552,1.911-15.1,3.836-22.662,5.709-.939.233-1.32.606-1.21,1.588a16.532,16.532,0,0,1,.007,2.48,3.928,3.928,0,0,1-4.016,3.938c-1.142.027-2.286.017-3.429,0a3.974,3.974,0,0,1-4.219-4.22c-.012-1.169,0-2.339,0-3.523L6.423,44.494m43.615,4.62c.367-.064.673-.1.968-.172Q67.661,44.729,84.32,40.53c.772-.193.873-.56.871-1.227-.019-5.322-.007-10.643-.013-15.965,0-2.433-1.093-3.51-3.552-3.51q-37.377,0-74.754,0c-2.5,0-3.556,1.081-3.557,3.624,0,5.164.043,10.329-.036,15.492-.017,1.107.358,1.459,1.346,1.706q14.835,3.7,29.653,7.476c1.311.331,2.628.64,4.039.983,0-.4-.006-.635,0-.868A3.933,3.933,0,0,1,42.376,44.1a33.276,33.276,0,0,1,4.017.048,3.824,3.824,0,0,1,3.583,3.731c.025.389.039.778.061,1.237M62.244,16.482c0-2.076.018-4.039,0-6A6.965,6.965,0,0,0,55.269,3.34c-7.407-.069-14.815-.052-22.222-.005a6.48,6.48,0,0,0-6.534,4.843,60.084,60.084,0,0,0-.631,8.268H29.36c0-2.029-.026-3.991.007-5.951a3.728,3.728,0,0,1,3.8-3.851q10.993-.053,21.986,0a3.705,3.705,0,0,1,3.781,3.849c.014.67,0,1.339,0,2.009,0,1.321,0,2.641,0,3.98Zm-6.626,0c0-1.993.031-3.877-.034-5.758a1.091,1.091,0,0,0-.743-.748,22.352,22.352,0,0,0-2.6-.039c-6.108,0-12.215-.011-18.323.024-.413,0-1.172.333-1.182.538-.09,1.985-.054,3.976-.054,5.982ZM41.626,52.251c0,1.179.031,2.359-.01,3.536-.029.836.25,1.25,1.144,1.209.941-.043,1.887-.04,2.829,0,.836.035,1.1-.361,1.095-1.139-.021-2.436-.025-4.873,0-7.309.009-.786-.268-1.177-1.085-1.159-.982.021-1.965.01-2.947,0-.738,0-1.056.334-1.035,1.087.034,1.257.009,2.515.009,3.772" transform="translate(0 0)" fill="#fff"/>
  </g>
  <g id="Group_26" data-name="Group 26" transform="translate(-972.656 -2098.688)">
    <circle id="Ellipse_2" data-name="Ellipse 2" cx="7" cy="7" r="7" transform="translate(1010.245 2143.245)" fill="#fff"/>
    <g id="Group_26-2" data-name="Group 26" transform="translate(1004.657 2137.905)">
      <path id="Path_107" data-name="Path 107" d="M0,0H24.68V24.68H0Z" fill="none"/>
      <path id="Path_108" data-name="Path 108" d="M12.284,22.567A10.284,10.284,0,1,1,22.567,12.284,10.283,10.283,0,0,1,12.284,22.567ZM11.258,16.4l7.27-7.271L17.075,7.671l-5.816,5.817L8.349,10.58,6.895,12.034Z" transform="translate(0.057 0.057)" fill="#6ea64d"/>
    </g>
  </g>
</svg>
