<svg id="Group_21" data-name="Group 21" xmlns="http://www.w3.org/2000/svg" xmlns:xlink="http://www.w3.org/1999/xlink" width="103.495" height="106.845" viewBox="0 0 103.495 106.845">
  <defs>
    <clipPath id="clip-path">
      <rect id="Rectangle_16" data-name="Rectangle 16" width="103.495" height="106.845" fill="#fff"/>
    </clipPath>
  </defs>
  <g id="Group_20" data-name="Group 20" clip-path="url(#clip-path)">
    <path id="Path_50" data-name="Path 50" d="M74.809,135.627l-.286.879-.9,1.344-.526.449,3.651.91c.861.989,1.579.593,2.253-.233l2.823-.6-1.045-1.2-.724-1.327a9.2,9.2,0,0,1-.223-4.672l.436-1.113.529-1.1.876-.889-.009.009.883-.889a19.256,19.256,0,0,1,3.653-1.09,7.038,7.038,0,0,1,5.5,1.958l.176.176c2.1,2.129,1.918,4.734,1.543,7.38l-.659,1.319-1.185,1.245c1.236.519,2.418,1.035,3.618,1.5a1.152,1.152,0,0,0,.763-.047c1.171-.46,2.328-.956,3.456-1.424a17.367,17.367,0,0,1-1.541-2.709,6.93,6.93,0,0,1,4.92-9.242,7.293,7.293,0,0,1,8.187,3.9,7.905,7.905,0,0,1,.242,5.451l-.659,1.319-.658.289-.17.029.164.162-.625,1.131,3.075.645.634.226a7.318,7.318,0,0,1,2.283,6.072c-.082,3.555-.021,7.113-.021,10.822,2.226,0,4.435-.056,6.637.036a3.074,3.074,0,0,1,1.789.794,2.371,2.371,0,0,1,.435,1.492,24.07,24.07,0,0,1-.012,3.1,19.149,19.149,0,0,1-.41,2.188c-.081.425-.154.852-.23,1.278l-.209,1.092-.7,2.683-1.532,4.2-2.181,4.2-.486.734-.692,1.1-.815,1.021-1.6,2.083-1.063,1.139L110.566,187l-.89.666-.89.669-.9.652-.667.443-1.107.68-4,2.066-4.243,1.7c-.979.341-1.948.719-2.943,1.006a6.64,6.64,0,0,1-1.518.141c-3.409.155-6.817.34-10.227.428a17.712,17.712,0,0,1-2.874-.383l-2.225-.445-2.417-.667-1.352-.487-.9-.393-1.335-.455-.214-.063-.43-.206-3.623-1.942-1.287-.742L65.415,189l-.89-.667-.874-.652-.448-.443-.886-.669-.671-.665L58.96,183.22l-.664-.673-.671-.885-.42-.435-.669-.889-.659-.894-.683-1.106-.745-1.287-1.067-2.019-.177-.243-.689-1.376-.277-.626-.619-1.588-.716-2.2-.667-2.225-.223-.89a5.026,5.026,0,0,0,.077-1.183c-.122-.727-.342-1.437-.522-2.154q0-.222-.007-.445a43.977,43.977,0,0,1-.1-4.5c.063-.875.834-1.3,1.761-1.291,2.322.012,4.645,0,7.059,0,0-4.035-.031-7.984.021-11.933a21.217,21.217,0,0,1,.447-2.967l.676-1.109.646-.654,1.777-.674,1.327-.509-2.039-3.515-.16-.455a5.311,5.311,0,0,1,.522-3.367c.179-.267.1-.705.142-1.065l1.121-1.554.422-.437,2.224-1.339.662-.232,1.113-.266,3.674.551.027.029.527.288.217.07,0,0,.455.175,2.666,2.935.4,1.128q.041,1.549.082,3.1l-.273.882.006-.006-.158.232m25.081,53.214c-3-.309-6-.795-9-.883-3.8-.111-7.6.045-11.4.2-2.136.088-4.263.408-6.394.624l-.033.292c1.157.427,2.288.95,3.476,1.259a45.73,45.73,0,0,0,6.4,1.389,42.033,42.033,0,0,0,6.718.056c1.3-.067,2.576-.594,3.881-.725a18.827,18.827,0,0,0,6.137-1.838l.6-.287-.385-.088M70.338,165a14.916,14.916,0,0,1,.4,1.641c.186,1.433.294,2.877.51,4.3.028.184.494.39.777.425a3.438,3.438,0,0,0,1.059-.144c1.032-.21,2.062-.431,3.093-.647.38-.027.83.2,1.265.175,1.481-.09,2.956-.27,4.433-.416l.451-.464a26.129,26.129,0,0,0,2.971.446c3.092.121,6.189.145,9.283.241.983.03,1.964.152,2.943.258,1.512.164,3.021.35,4.746.552.458-3.935.894-7.68,1.335-11.466H69.826c.1,1.348.194,2.664.29,3.981-.577.5.042.763.223,1.112m25.8,19.541.183.445c.377-.378.9-.691,1.105-1.147,1.167-2.558,2.211-5.172,3.4-7.719.429-.919-.106-1.181-.695-1.3a34.819,34.819,0,0,0-3.649-.476c-1.96-.178-3.922-.35-5.887-.44-1.515-.07-3.037-.025-4.555,0a22.2,22.2,0,0,0-4.4.178c-1.386.3-2.657-.492-4.149.15-1.381.594-3.161.252-4.763.346-.455.027-.683.128-.494.76a41.378,41.378,0,0,0,3.947,8.9,1.511,1.511,0,0,0,1.181.527c1.741-.08,3.477-.386,5.216-.39,4.52-.008,9.041.1,13.562.162M79.711,142.381v13.877H93.887c0-3.991,0-7.916,0-11.842,0-1.592-.75-2.328-2.363-2.331-2.818,0-5.637-.029-8.454.012-1.132.017-2.262.187-3.357.284M61.871,156.26H76.086c0-3.987,0-7.912,0-11.837,0-1.6-.744-2.335-2.356-2.338-2.818,0-5.637-.029-8.454.012-1.133.017-2.264.186-3.4.286Zm49.816.037c0-4.137.011-8.174-.007-12.21a1.967,1.967,0,0,0-2.019-2q-5.229-.028-10.458,0a1.61,1.61,0,0,0-1.749,1.762q-.016,5.784,0,11.569c0,.283.032.566.05.87ZM66.171,159.94H52.826c.2,1.292.394,2.5.563,3.716a31.458,31.458,0,0,0,3.588,10.582c.283.528.56.59,1.2.393,2.968-.909,5.968-1.719,8.975-2.493.53-.136.6-.244.5-.741a25.391,25.391,0,0,1-.452-2.882c-.123-1.309-.1-2.633-.261-3.936-.186-1.533-.5-3.051-.766-4.639m39.631,11.9c3.137.916,6.241,1.771,9.3,2.755.721.231,1.072.234,1.351-.47.985-2.491,2.157-4.925,2.92-7.482a56.713,56.713,0,0,0,1.193-6.714h-13.4c-.467,4.051-.927,8.043-1.372,11.91m-37.436,3.494-9.066,2.5a33.087,33.087,0,0,0,7.814,7.859,2.225,2.225,0,0,0,2.248.456c1.042-.365,2.145-.555,3.077-.786l-4.073-10.033m32.7,10.047c1.176.286,2.585.635,4,.964a.575.575,0,0,0,.4-.12,34.038,34.038,0,0,0,8.441-8.123c-.021-.061-.025-.117-.043-.122-2.907-.835-5.813-1.674-8.73-2.47-.134-.037-.47.279-.551.492-1.169,3.068-2.31,6.147-3.517,9.38m-.057-52.19a3.349,3.349,0,0,0,3.036,3.564,3.623,3.623,0,0,0,4.053-3.56c.123-2.007-1.6-3.533-3.844-3.564-1.891-.026-3.234,1.448-3.245,3.56m-32.949,3.552A3.548,3.548,0,1,0,68,129.649a3.548,3.548,0,0,0,.059,7.095M90.1,133.2c0-2.312-.99-3.22-3.161-3.385a3.237,3.237,0,0,0-3.765,3.732,3.383,3.383,0,0,0,3.517,3.2A3.47,3.47,0,0,0,90.1,133.2" transform="translate(-34.74 -88.61)" fill="#fff"/>
    <path id="Path_52" data-name="Path 52" d="M5.121,121.527,4,127.756q-.037.438-.075.875-.074,1.342-.147,2.684l.223.89.446,2.67.361,1.352c.551,1.446,1.1,2.895,1.666,4.334.034.085.247.1.377.147l.176.4,1.141,1.789.906,1.128,1.113,1.113,2,1.554,3.338,2.006,2.012.814.667.236.89.215,1.137.374-.422,2.563-.218.445c-.8.771-1.66.141-2.344-.086-1.67-.554-3.251-1.376-4.868-2.09l-1.287-.738-.9-.692-.258-.179-.619-.487-.254-.168-.62-.461-.92-.861a.956.956,0,0,0-1.124-1.126l-2.185-2.685-.737-1.287-1.25-2.5q-.021-.21-.041-.419L2,139.316a1.22,1.22,0,0,0-.084-.171l-1.1-3.38-.223-.89q-.111-1.224-.222-2.447,0-.223-.005-.445c-.06-.849-.112-1.7-.185-2.546-.042-.488-.118-.973-.179-1.459l.385-.453q.023-.659.046-1.318l.16-.674v-.225L.813,124.2l.445-2.448.449-1.557.429-1.112.725-2.427.393-.91.279-.86.235-.689.236-.44.226-.464.171-.243.415-1.124,1.177-2.4a.443.443,0,0,0,.2-.047l.183-.183.507-1.328.223-.444.676-1.109.36-.458L9.1,104.4l1.051-1.563.275-.423.908-1.347,1.091-1.333a7.368,7.368,0,0,0,.653-.608c.518-.607,1.014-1.233,1.519-1.851l.075-.213.883-1.115.674-.665.877-1.117,5.555-5.553,1.578-1.339.423-.444.912-.668.646-.664.9-.674,0,.005,1.351-1.109-.009.007,3.111-2.443,1.1-.733.667-.182.654.925.662,1.084-.21,1.312L34,84.128l-3.339,2.444-.218.234-1.117.878-.22.229-1.115.884-.435.3-1.122,1.032-1.107.905-1.341,1.32-2.67,2.67-1.334,1.357L18.864,97.7l-.683.906-.205.211-1.129,1.347-.874,1.1-2.239,2.906-.218.224a.493.493,0,0,0-.2.049l-.618,1.071-.508,1.077-.9,1.359-.425.675-.244.438-.423.661-.215.243-.365.1.14.119-.21.818-.52.757L8.008,113.74l-.054.405-.666,1.37L6.4,117.739l-1.048,3.343-.228.445" transform="translate(0 -56.484)" fill="#fff"/>
    <path id="Path_53" data-name="Path 53" d="M253.5,35.216l-1.328-.4-4.259-.89-8.666-.378a8.64,8.64,0,0,1-.725-1.853,4.828,4.828,0,0,1,.293-1.579.391.391,0,0,0,.2-.052c1.922.014,3.844-.008,5.764.053,1.791.056,3.579.2,5.584.316l3.1.831,1.336.425-.01-.01.246.17,1.553.5,1.107.455,1.78.894,3.374,2.281a.129.129,0,0,0,.106.1l.752.718a17.822,17.822,0,0,1,5.127,6.851,7.386,7.386,0,0,0,.426.7l.443,1.113c.4,1.824.875,3.634,1.16,5.475.2,1.3.089,2.642.2,3.957a24.346,24.346,0,0,1-1.1,8.476,1.849,1.849,0,0,0,.024.551l-.227.445-.216,1.112-.953,2.665-.228.666-.664,1.749-.837,1.595-1.441,2.912-.6.714-.155.014.154.142-.238.662-1.1,1.987-.653.913L260.8,82.606l-.235.44L258.4,85.737c-.325.368-.609.662-1.122.168-.489-.472-1.149-.774-1.609-1.267a1.133,1.133,0,0,1-.08-1.077c2.078-3.051,4.292-6.012,6.285-9.115a32.1,32.1,0,0,0,2.219-4.845c.089-.208-.1-.536.11-.7a15.924,15.924,0,0,0,1.142-2.3c.631-2,1.233-4.021,1.684-6.069a24.638,24.638,0,0,0,.448-4.182c.067-1.477-.007-2.961-.019-4.442l-.222-1.11v-.227l-.16-.675-.9-3.355-.271-.64-1.276-2.456-.65-.9-1.367-1.788-1.1-1.1-.9-.685-1.781-1.332-1.558-.892-.876-.429-1.8-.839-1.089-.274" transform="translate(-167.627 -21.131)" fill="#fff"/>
    <path id="Path_54" data-name="Path 54" d="M21.515,302.731a.956.956,0,0,1,1.124,1.126l-1.124-1.126" transform="translate(-15.121 -212.764)" fill="#fff"/>
    <path id="Path_55" data-name="Path 55" d="M.385,239.05,0,239.5l.385-.453" transform="translate(0 -168.009)" fill="#fff"/>
    <path id="Path_56" data-name="Path 56" d="M23.23,283.8l-.176-.4.176.4" transform="translate(-16.203 -199.184)" fill="#fff"/>
    <path id="Path_57" data-name="Path 57" d="M32.474,180.169l-.14-.119.365-.1-.225.218" transform="translate(-22.725 -126.473)" fill="#fff"/>
    <path id="Path_58" data-name="Path 58" d="M33.471,313.382a.843.843,0,0,0-.051-.2l.259.179-.1.041Z" transform="translate(-23.488 -220.11)" fill="#fff"/>
    <path id="Path_59" data-name="Path 59" d="M62.139,289.991l.177.243-.177-.243" transform="translate(-43.672 -203.811)" fill="#fff"/>
    <path id="Path_60" data-name="Path 60" d="M191.862,132.956l-.176-.176.176.176" transform="translate(-134.721 -93.32)" fill="#fff"/>
    <path id="Path_61" data-name="Path 61" d="M326.693,184.058l-.154-.142.155-.014c0,.052,0,.1,0,.156" transform="translate(-229.498 -129.25)" fill="#fff"/>
    <path id="Path_62" data-name="Path 62" d="M252.528,163.809l-.164-.162.17-.029c0,.064,0,.127-.006.19" transform="translate(-177.366 -114.995)" fill="#fff"/>
    <path id="Path_63" data-name="Path 63" d="M14.406,190.33l-.171.243.171-.243" transform="translate(-10.005 -133.768)" fill="#fff"/>
    <path id="Path_64" data-name="Path 64" d="M158.594,273.913l.451-.464-.451.464" transform="translate(-111.463 -192.185)" fill="#fff"/>
    <path id="Path_65" data-name="Path 65" d="M218.5,337.649l.216-.375.385.088-.6.287" transform="translate(-153.565 -237.043)" fill="#fff"/>
    <path id="Path_66" data-name="Path 66" d="M139.273,47.425l.588.308-.429.366-.16-.675" transform="translate(-97.884 -33.331)" fill="#fff"/>
    <path id="Path_67" data-name="Path 67" d="M43.329,161.361l-.618,1.071.618-1.071" transform="translate(-30.018 -113.408)" fill="#fff"/>
    <path id="Path_68" data-name="Path 68" d="M30.523,311.171c-.012-.066-.026-.131-.042-.2l.254.169-.1.04Z" transform="translate(-21.423 -218.559)" fill="#fff"/>
    <path id="Path_69" data-name="Path 69" d="M6.914,278.969l-.179-.244.179.244" transform="translate(-4.733 -195.893)" fill="#fff"/>
    <path id="Path_70" data-name="Path 70" d="M138.037,261.71a1.774,1.774,0,0,1-.894-.276c-1.934-.957-3.878-1.9-5.8-2.879a1.4,1.4,0,0,0-1.455-.019c-1.915.995-3.866,1.92-5.8,2.884a1.427,1.427,0,0,1-1.63.057,1.5,1.5,0,0,1-.467-1.632c.347-2.154.637-4.318.972-6.474a1.166,1.166,0,0,0-.37-1.118c-1.548-1.543-3.07-3.113-4.6-4.672-.418-.425-.793-.867-.589-1.525.21-.679.744-.865,1.39-.968,2.133-.339,4.256-.735,6.39-1.071a1.361,1.361,0,0,0,1.119-.823c.973-1.924,2-3.818,2.985-5.738a1.428,1.428,0,0,1,1.319-.954,1.449,1.449,0,0,1,1.307.975c.983,1.919,2.014,3.813,2.984,5.739a1.359,1.359,0,0,0,1.133.8c2.159.342,4.31.73,6.467,1.08a1.413,1.413,0,0,1,1.269.909,1.354,1.354,0,0,1-.479,1.48c-1.551,1.578-3.086,3.172-4.661,4.726a1.287,1.287,0,0,0-.389,1.261c.35,2.207.672,4.419,1,6.63a1.29,1.29,0,0,1-1.2,1.606m-1.657-3.476c-.279-1.933-.5-3.677-.794-5.41a1.7,1.7,0,0,1,.521-1.636c.717-.7,1.406-1.427,2.1-2.145.56-.576,1.115-1.155,1.741-1.8-1.648-.288-3.143-.636-4.657-.788a2.749,2.749,0,0,1-2.508-1.793c-.62-1.4-1.41-2.731-2.2-4.223-.856,1.633-1.672,3.1-2.4,4.608a2.223,2.223,0,0,1-1.872,1.343c-1.658.234-3.306.545-5.048.839.141.181.21.286.3.375,1.177,1.209,2.35,2.421,3.539,3.618a1.654,1.654,0,0,1,.492,1.571c-.258,1.5-.466,3.016-.675,4.528-.034.243-.2.566.041.732.2.139.436-.107.643-.208,1.325-.647,2.664-1.271,3.962-1.968a2.029,2.029,0,0,1,2.086.013c1.489.778,3.008,1.5,4.724,2.347" transform="translate(-79.545 -232.734)" fill="#fff"/>
  </g>
</svg>
