<svg id="Group_19" data-name="Group 19" xmlns="http://www.w3.org/2000/svg" xmlns:xlink="http://www.w3.org/1999/xlink" width="84.904" height="99.688" viewBox="0 0 84.904 99.688">
  <defs>
    <clipPath id="clip-path">
      <rect id="Rectangle_15" data-name="Rectangle 15" width="84.904" height="99.688" fill="#fff"/>
    </clipPath>
  </defs>
  <g id="Group_18" data-name="Group 18" clip-path="url(#clip-path)">
    <path id="Path_31" data-name="Path 31" d="M66.7.193,67.828,1l1.539,1.541.254.572.593,1.362c.05.73.143,1.461.143,2.191q.011,35.277,0,70.553c0,.794-.126,1.589-.194,2.383l-.529,1.367-.266.573-1.539,1.541-.576.26-.2.151,0-.006-1.551.628c-.226-.011-.452-.031-.678-.031q-28.713,0-57.426,0c-.226,0-.452.02-.678.031l-1.752-.389-.562-.236L2.058,81.143l-.24-.562-.394-3.114c.011-1.683.032-3.366.033-5.049q0-14.328,0-28.657a12.167,12.167,0,0,1,.017-1.822c.05-.326.372-.61.572-.914l.4-.536a1.915,1.915,0,0,1,2.755,1.164c.049.76.14,1.52.14,2.281q.014,16.671.008,33.342c0,.388.024.776.037,1.164A1.715,1.715,0,0,0,7.11,80.159c.291.011.582.031.873.031q27.926,0,55.851.026c1.994,0,2.537-1.092,2.624-2.59.053-.905.01-1.816.01-2.724q0-34.056.016-68.111c0-1.812-.765-2.905-2.937-2.9Q35.817,3.9,8.086,3.9a5.879,5.879,0,0,0-.984.165c-1.209.109-1.609.478-1.711,1.579q-.019,8.121-.04,16.242c0,1.329-.02,2.658-.031,3.986a2.136,2.136,0,0,1-1.906,1.8h-.2c-1.4-.475-1.812-.764-1.791-2.563l0-18.877q.016-.287.032-.575,0-.106,0-.213l.219-1.738L2.4,2.527,4,.936,5.358.33,5.933.185,6.721,0H66.67L66.7.193" transform="translate(-1.077)" fill="#fff"/>
    <path id="Path_32" data-name="Path 32" d="M19.923.185a.743.743,0,0,0,.038-.122c0-.019-.019-.042-.029-.063h.779l-.788.185" transform="translate(-15.066)" fill="#fff"/>
    <path id="Path_33" data-name="Path 33" d="M66.708,148.5l-.584-.382a1.98,1.98,0,0,1,.973-3.573c.388.01.777.028,1.165.028q29.725,0,59.45.026c1.906,0,2.493-.834,2.648-2.574.009-.1,0-.195,0-.292q0-37.46,0-74.921c0-.291-.024-.582-.037-.873a1.81,1.81,0,0,1,1.784-1.395h.584c.274.122.688.171.8.38a18.923,18.923,0,0,1,.8,1.989c-.011.258-.033.517-.033.775q0,36.888,0,73.776c0,.258.022.517.033.775l-.2,1.168-.186,1.168-.645,1.355-.659.822-.062.061-.824.66-1.159.638c-1.191.119-2.381.34-3.572.341q-29.8.031-59.593.014c-.226,0-.452.022-.678.033" transform="translate(-49.385 -48.808)" fill="#fff"/>
    <path id="Path_34" data-name="Path 34" d="M126.455,34.2c.011.324.031.647.031.971q0,37.263-.015,74.526a6.618,6.618,0,0,1-1.537,4.845,5.4,5.4,0,0,1-3.914,1.964q-26.026.033-52.051.023c-.356,0-.712.022-1.067.033-1.78-.108-2.272-.453-2.563-1.793v-.2c-.012-1.209.84-1.612,1.792-1.921q20.63-.008,41.259-.018c4.216,0,8.432-.024,12.648-.037.647-.331,1.368-.6,1.33-1.525a3.94,3.94,0,0,0,.218-.9q.017-37.894.012-75.787a1.38,1.38,0,0,0-.027-.193l.5-1.192a.117.117,0,0,0,.084-.086l1-.312h.584c1.059.012,1.407.787,1.719,1.6" transform="translate(-49.411 -24.655)" fill="#fff"/>
    <path id="Path_35" data-name="Path 35" d="M67.25,81.6H47.685a2.185,2.185,0,0,1-1.6-2.563V61.515a2.2,2.2,0,0,1,1.6-2.563l19.269,0a1.8,1.8,0,0,1,1.772,1.781q0,9.537.007,19.075A1.868,1.868,0,0,1,67.25,81.6m-2.474-4.119v-14.4l-.157-.163H50.083V77.637H64.618l.158-.161" transform="translate(-34.839 -44.581)" fill="#fff"/>
    <path id="Path_36" data-name="Path 36" d="M161.432,261.12v.778l-1.214,1.407a8.572,8.572,0,0,1-1.116.144q-10.782.013-21.564.008c-.355,0-.711.02-1.066.031-.814-.337-1.536-.743-1.561-1.785-.031-1.273.205-1.572,1.764-2.118l23.543.128,1.214,1.407" transform="translate(-102.021 -196.305)" fill="#fff"/>
    <path id="Path_37" data-name="Path 37" d="M161.374,200.438v.778l-1.214,1.407a8.573,8.573,0,0,1-1.116.144q-10.782.013-21.564.008c-.355,0-.711.02-1.066.031a5.522,5.522,0,0,1-1.285-.909c-.825-1.044.193-2.514,1.488-2.995l23.543.128,1.214,1.407" transform="translate(-101.963 -150.415)" fill="#fff"/>
    <path id="Path_38" data-name="Path 38" d="M53.112,249.866l1.707,1.8,4.737-4.521,2.3-1.188c.65.552,1.614.843,1.612,1.937l-.444,1.548-6.8,6.8-1.354.249-.771-.055-.385-.206-3.682-3.675-.584-.779q-.027-.773-.054-1.546l.812-1.146,1.549-.055,1.352.837" transform="translate(-37.357 -185.999)" fill="#fff"/>
    <path id="Path_39" data-name="Path 39" d="M48.932,191.547l-.336-.592a1.74,1.74,0,0,1,.584-1.735l1.535-.625,1.549.833c.51.532,1.039,1.048,1.524,1.6.411.47.708.359,1.1-.044,1.19-1.228,2.409-2.428,3.626-3.63.31-.306.655-.576.984-.862.246-.442.6-.775,1.119-.577.685.263,1.33.631,1.992.953q.082.877.164,1.753l-.385.568-.546.638c-1.115,1.061-2.238,2.115-3.343,3.186-.837.811-1.657,1.639-2.474,2.47a2.209,2.209,0,0,1-2.583.567l-4.507-4.506" transform="translate(-36.701 -140.551)" fill="#fff"/>
    <path id="Path_40" data-name="Path 40" d="M183.366,139.552l-14.209.008a2.051,2.051,0,0,1-1.561-2.271c.118-.948.878-1.276,1.561-1.686q6.419.016,12.838.034c.453,0,.907.021,1.36.032.8.325,1.6.649,1.6,1.718v.389c0,1.067-.836,1.385-1.589,1.776" transform="translate(-126.726 -102.546)" fill="#fff"/>
    <path id="Path_41" data-name="Path 41" d="M184.955,99.061v.389c0,1.067-.836,1.385-1.589,1.776l-14.209.008a2.051,2.051,0,0,1-1.561-2.271c.118-.948.878-1.276,1.561-1.686q6.419.016,12.838.034c.453,0,.907.021,1.36.032.8.325,1.6.649,1.6,1.718" transform="translate(-126.725 -73.563)" fill="#fff"/>
    <path id="Path_42" data-name="Path 42" d="M183.366,62.9l-14.209.008a2.051,2.051,0,0,1-1.561-2.271c.118-.948.878-1.276,1.561-1.686q6.419.016,12.838.034c.453,0,.907.021,1.36.032.8.325,1.6.649,1.6,1.718v.389c0,1.067-.836,1.385-1.589,1.776" transform="translate(-126.726 -44.581)" fill="#fff"/>
    <path id="Path_43" data-name="Path 43" d="M3.325,137.268a2.255,2.255,0,0,1-2.314-1.209,1.807,1.807,0,0,1,.009-1.732,2.3,2.3,0,0,1,2.878-.759l.823,1.527-.2,1.168-1.2,1.006" transform="translate(-0.6 -100.837)" fill="#fff"/>
    <path id="Path_44" data-name="Path 44" d="M34.129,361.672c1.832-.591,2.455-.3,3.312,1.549-.074.2-.153.4-.222.608a1.848,1.848,0,0,1-2.894.964c-1.006-.686-1.067-1.649-.2-3.121" transform="translate(-25.348 -273.297)" fill="#fff"/>
    <path id="Path_45" data-name="Path 45" d="M0,23.647l.014-.613.371.042q-.016.287-.032.575l-.352,0" transform="translate(0 -17.419)" fill="#fff"/>
    <path id="Path_46" data-name="Path 46" d="M3.9,166.48l.424-.385-.4.536a1.091,1.091,0,0,0-.02-.151" transform="translate(-2.949 -125.605)" fill="#fff"/>
    <path id="Path_47" data-name="Path 47" d="M.428,22.546.057,22.5l.373-.171c0,.071,0,.142,0,.213" transform="translate(-0.043 -16.889)" fill="#fff"/>
    <path id="Path_48" data-name="Path 48" d="M122.32,75.35l-.157-.163.157.163" transform="translate(-92.383 -56.858)" fill="#fff"/>
    <path id="Path_49" data-name="Path 49" d="M122.159,135.1l.158-.161-.158.161" transform="translate(-92.38 -102.045)" fill="#fff"/>
  </g>
</svg>
